# xmcd
#
# Track frame offsets: 
#        150
#        12457
#        21113
#        31955
#        40446
#        48585
#        62177
#        72410
#        81549
#        92548
#        104094
#        111517
#        120573
#        131869
#        143052
#        153509
#        164832
#        178341
#        186205
#        196004
#        207981
#        219963
#        227345
#        239116
#        246560
#        259275
#        267933
#        278629
#        290049
#        301182
#        308459
#        317956
#        325525
#        334457
#        344573
#        353746
#
# Disc length: 4781 seconds
#
# Revision: 3
# Processed by: cddbd v1.5.2PL0 Copyright (c) Steve Scherf et al.
# Submitted via: ExactAudioCopy v1.0b3
#
DISCID=3d12ab24
DTITLE=Various Artist - Sun Rockabilly Meltdown [Disc 2]
DYEAR=2009
DGENRE=Rockabilly
TTITLE0=Perkins, Carl - Her Love Rubbed Off
TTITLE1=Earls, Jack - Crawdad Hole
TTITLE2=Lewis, Jerry Lee - Mean Woman Blues
TTITLE3=Riley, Billy Lee - I Want You Baby
TTITLE4=Blake, Tommy - You Better Believe It
TTITLE5=Dorman, Harold - To Be With You
TTITLE6=Pritchett, Jimmy - That's The Way I Feel
TTITLE7=Pendarvis, Tracy - Is It Me?
TTITLE8=Barton, Ernie - Whirlpool
TTITLE9=Lewis, Jerry Lee - Drinkin' Wine Spo-Dee-O-Dee
TTITLE10=Gilley, Mickey - Thinkin' Of Me
TTITLE11=Burgess, Sonny - Little Town Baby
TTITLE12=Smith, Warren - Who Took My Baby?
TTITLE13=McVoy, Carl - Little Girl
TTITLE14=Smith, Ray - Why, Why, Why
TTITLE15=Thompson, Hayden - Fairlane Rock
TTITLE16=Penner, Dick - Don't Need Your Lovin' Baby
TTITLE17=Yelvington, Malcolm - Have Myself A Ball
TTITLE18=McDaniel, Luke - Go Ahead Baby
TTITLE19=Perkins, Carl - Put Your Cat Clothes On
TTITLE20=Arnold, Jerry - Little Boy Blue
TTITLE21=Pendarvis, Tracy - Bop A Cha-Cha Baby
TTITLE22=Mann, Carl - Pretend
TTITLE23=Lewis, Jerry Lee - Friday Night
TTITLE24=Parchman, Kenneth - Treat Me Right
TTITLE25=Cash, Johnny - Two Timin' Woman
TTITLE26=Cook, Ken and Roy Orbison - Crazy Baby
TTITLE27=Presley, Elvis - Trying To Get To You
TTITLE28=Pittman, Barbara - Voice Of A Fool
TTITLE29=Honeycutt, Glenn - On Mobile Bay
TTITLE30=Chandler, Howard - Wampus Cat
TTITLE31=Perkins, Carl - Glad All Over
TTITLE32=Lewis, Jerry Lee - Lewis Boogie
TTITLE33=Simmons, Gene - Shake, Rattle And Roll
TTITLE34=Riley, Billy Lee and The Little Green Men - Flying Saucer Rock 
TTITLE34='n 'Roll
TTITLE35=Rich, Charlie - Blue Suede Shoes
EXTD=
EXTT0=
EXTT1=
EXTT2=
EXTT3=
EXTT4=
EXTT5=
EXTT6=
EXTT7=
EXTT8=
EXTT9=
EXTT10=
EXTT11=
EXTT12=
EXTT13=
EXTT14=
EXTT15=
EXTT16=
EXTT17=
EXTT18=
EXTT19=
EXTT20=
EXTT21=
EXTT22=
EXTT23=
EXTT24=
EXTT25=
EXTT26=
EXTT27=
EXTT28=
EXTT29=
EXTT30=
EXTT31=
EXTT32=
EXTT33=
EXTT34=
EXTT35=
PLAYORDER=
